<svg id="Layer_1" data-name="Layer 1" xmlns="http://www.w3.org/2000/svg" viewBox="0 0 1902 620.04"><defs><style>.cls-1{fill:#f4f2e9;}.cls-2{fill:#e7ac46;}.cls-3{fill:#c45a35;}.cls-4{fill:#5c622e;}.cls-5{fill:#5d632e;stroke:#5c612f;stroke-miterlimit:10;stroke-width:1.57px;}</style></defs><title>wellgrounded-horizontal-allsizes</title><rect class="cls-1" x="640.98" y="-640.98" width="620.04" height="1902" transform="translate(1261.02 -640.98) rotate(90)"/><polygon class="cls-2" points="93.26 528.97 791.53 528.97 791.53 285.01 702.67 359.49 634.92 391.32 546.57 298.5 352.94 103.63 340.38 91.07 340.37 91.09 208.53 204.56 93.26 321.59 93.26 528.97"/><path class="cls-3" d="M791.55,438.55V529H93.25V321.6L208.51,204.53,340.36,91.08l5.25,8.47c6.2,17.49,2.38,24.06,3.18,35.62.26,5.24,2.86,10.91,6,15.36,6.51,9.17,14.67,17.33,21.25,26.4,6.78,9.43,14,11.49-6.68,17.8-8.43,2.6-4.35,8.74-2.28,16.16,2.07,7.11-4.13,12.62-4.56,20.3-.47,5.88-3.12,12.19-1.8,17.54,3.6,14.79-7.58,24.86-7.58,24.86l-38.52-.85-21,38.79,128.72,33.7,145.42,93.32h13.77l54.27-47.16,58.29,47.16Z"/><polygon class="cls-4" points="364.31 438.58 319.24 364.96 296.33 402.38 254.94 334.68 206.94 413.08 189.51 384.57 156.44 438.58 93.26 438.58 93.26 528.97 791.53 528.97 791.53 438.58 364.31 438.58"/><circle class="cls-2" cx="646.04" cy="197.01" r="69.58"/><path class="cls-4" d="M1019.06,162.33c0,5.92-9.81,4.08-14.72,15.35L974.9,245.37c-1.7,3.89-3,5.92-9.06,5.92-6.42,0-7.93-2.41-9.44-6.11l-19.06-48.63L916.2,245.37c-1.13,3-1.88,5.92-9.25,5.92-6.22,0-7.54-2.22-9.24-6.11L868.45,177.5c-5.09-11.28-14.72-9.25-14.72-15.17,0-2.4,2.08-3.51,4.53-3.51,4.91,0,10.19.56,18.31.56,7.17,0,12.27-.56,16.23-.56,3,0,5.28,1.11,5.28,3.89,0,5.91-10.56,3.7-10.56,12.2a35.5,35.5,0,0,0,2.64,9.8L910.54,233l21.33-50.49-1.89-5c-4.34-11.47-13.21-9.25-13.21-15.17,0-2.4,2.07-3.51,4.72-3.51,4.72,0,8.68.56,16.61.56,7.17,0,13.59-.56,17.55-.56,3.21,0,5.28,1.11,5.28,3.89,0,5.91-12.26,5.17-12.26,12.39,0,2,.75,4.8,2.64,9.61l17.93,48.46,20-48.46c2.08-5.36,2.83-8.13,2.83-10,0-8.32-11.51-6.11-11.51-12,0-2.78,2.27-3.89,5.28-3.89,3.78,0,8.69.56,13.78.56,5.29,0,10-.56,14.54-.56C1016.61,158.82,1019.06,159.93,1019.06,162.33Z"/><path class="cls-4" d="M1122.83,231.13a9.4,9.4,0,0,1-1.7,4.44c-7,9.8-23.4,18.12-39.82,18.12-25.67,0-47.38-17.57-47.38-48.45,0-29,21.71-49.19,46.43-49.19,23.22,0,38.69,17.38,38.69,35.5,0,3.89-1.13,5-4,5.92l-60.58,17.75c5.09,15.17,17.36,25.9,33,25.9a35.84,35.84,0,0,0,26.61-11.47c1.89-1.85,3.4-2.77,4.91-2.77A4,4,0,0,1,1122.83,231.13Zm-71.15-32.73a46.83,46.83,0,0,0,.56,7.4l43.6-13.32c3.39-.93,4.34-1.85,4.34-5,0-9.25-8.87-20.72-22.27-20.72C1063,166.77,1051.68,179.35,1051.68,198.4Z"/><path class="cls-4" d="M1144,247.22c0-7,11.89-1.66,11.89-16.65V137.74c0-11.47-13.4-5.18-13.4-12.39,0-3,3.21-5.18,13.21-9.8,9.63-4.44,11.51-5,13.21-5,3,0,4,2.4,4,6.47V230.57c0,15,12.07,9.62,12.07,16.65a3.67,3.67,0,0,1-4,3.7c-4.15,0-9.81-.56-16.61-.56-6.6,0-11.89.56-16,.56C1145.36,250.92,1144,248.88,1144,247.22Z"/><path class="cls-4" d="M1209.79,247.22c0-7,11.89-1.66,11.89-16.65V137.74c0-11.47-13.4-5.18-13.4-12.39,0-3,3.21-5.18,13.21-9.8,9.63-4.44,11.52-5,13.21-5,3,0,4,2.4,4,6.47V230.57c0,15,12.08,9.62,12.08,16.65a3.68,3.68,0,0,1-4,3.7c-4.15,0-9.81-.56-16.6-.56-6.61,0-11.9.56-16,.56C1211.11,250.92,1209.79,248.88,1209.79,247.22Z"/><path class="cls-4" d="M959.8,394.32c0,17.19-20.38,29.4-50.77,29.4-29.82,0-50.2-9.43-50.2-23.48,0-7.77,5.66-14.8,15.47-19.24-7.35-2.4-11.13-7.4-11.13-13.32,0-6.84,6.8-12.94,13.59-17.19-8.87-5.18-14.16-13.13-14.16-23.31,0-17.56,15.86-32.36,44.35-32.36a69.4,69.4,0,0,1,8.88.56c2.45-16.27,13-24.23,18.87-24.23,5.1,0,9.44,1.67,14.72,4.81,2.27,1.48,4.15,3.15,4.15,5.36s-1.51,4.07-5.28,4.07c-10.76,0-21.14,1.11-23.78,11.65,15.1,4.26,24.35,14.06,24.35,27.56,0,17.19-15.48,32.17-44.17,32.17a68.3,68.3,0,0,1-19.25-2.58c-3.58,2.21-7,4.43-7,7.77,0,3.14,3,4.43,10.19,5.17,17,2,35.48,3.7,41.9,4.44C948.86,373.23,959.8,381.19,959.8,394.32Zm-16.8,5c0-6.66-6.22-10.54-19.06-12-13-1.3-25.29-2.59-37.75-4.07-5.85,3-10.75,8.32-10.75,15.16,0,10.92,12.45,16.28,34.35,16.28C930.36,414.66,943,406.89,943,399.31ZM880.53,325c0,13.87,11.14,22.56,26.05,22.56,14.15,0,24.34-7.95,24.34-20.9,0-13.68-11.32-22.56-26-22.56C890.73,304.07,880.53,312.21,880.53,325Z"/><path class="cls-4" d="M1058.56,304.25c0,2.78-1.13,7.4-3.39,15.54-1,3.14-2.46,5-5.1,5-2.45,0-3.59-2-4.72-5-2.45-5.74-4.9-8.51-8.87-8.51-9.06,0-24.72,14.24-24.72,40.13V369c0,15,14.72,9.06,14.72,16.65a3.84,3.84,0,0,1-4.15,3.69c-4.72,0-11.33-.55-19.07-.55-6.6,0-11.89.55-15.85.55-3.21,0-4.53-2-4.53-3.69,0-7,11.89-1.67,11.89-16.65V323.67c0-11.46-13.4-5.18-13.4-12.39,0-2.95,3.4-5,13.21-9.62,9.63-4.62,11.7-5.17,13.21-5.17,3,0,4,2.4,4,6.47V322c6.22-15.72,20-26.26,33.4-26.26C1053.09,295.75,1058.56,299.63,1058.56,304.25Z"/><path class="cls-4" d="M1078.55,344c0-28.48,21.7-49.56,51.33-49.56,28.88,0,49.07,20,49.07,48.46,0,28.29-21.89,49.19-51.33,49.19C1098.74,392.1,1078.55,372.12,1078.55,344Zm82.1,5.37c0-23.3-14.16-44.76-34.73-44.76-17.93,0-29.07,14.06-29.07,32.74,0,23.12,14.16,44.75,34.73,44.75C1149.51,382.11,1160.65,367.87,1160.65,349.38Z"/><path class="cls-4" d="M1309.87,379.52c0,3.51-3.39,5.37-15.28,8.14-8.31,2-11.33,2.59-13.21,2.59-3.4,0-4-3.33-4-6.29V373.23c-6,9.62-15.66,17.76-31.89,17.76-21.33,0-31.52-14.06-31.52-35.88v-32c0-11.1-15.1-6.85-15.1-13.5,0-3.33,3.21-5.18,14.34-9.25,9.63-3.51,12.08-3.88,13.4-3.88,4,0,4.35,3.69,4.35,6.65v49.38c0,14.8,4.15,25,20.19,25,13,0,26.23-9.43,26.23-28.11V323.12c0-11.1-16.6-6.47-16.6-13.5,0-3.15,3.39-5,15.85-9.44,9.06-3.14,12.26-3.69,13.78-3.69,3.39,0,4,3.33,4,6.65v61.77C1294.4,376.19,1309.87,373.42,1309.87,379.52Z"/><path class="cls-4" d="M1442.72,385.63c0,2.58-2.26,3.69-5.28,3.69-4.91,0-8.87-.55-16.42-.55-7.74,0-11.14.55-16.23.55-3.4,0-5.29-1.66-5.29-3.88,0-6.66,12.65-2.22,12.65-13.69,0-1.47-.38-3.69-.57-5.55L1407.05,335c-1.51-9.43-4.91-25-19.82-25-11.32,0-23.59,8.87-23.59,27.74V369c0,15,12.27,9.62,12.27,16.65a3.84,3.84,0,0,1-4.15,3.69c-4.15,0-9.81-.55-16.61-.55-6.61,0-11.89.55-15.85.55-3.21,0-4.53-2-4.53-3.69,0-7,11.89-1.67,11.89-16.65V323.67c0-11.46-13.4-5.18-13.4-12.39,0-2.95,3.39-5,13.21-9.62,9.63-4.62,11.7-5.17,13.21-5.17,3,0,4,2.4,4,6.47v10.91c6-9.62,15.86-17.94,30.39-17.94,22.46,0,27.93,21.46,30,36.62l4.9,34.58C1431.21,384.51,1442.72,378.41,1442.72,385.63Z"/><path class="cls-4" d="M1567.21,378.23c0,3.14-3.59,5-14.16,8.69-9.06,3.33-11.51,3.88-12.83,3.88-4,0-4-4.25-4-6.65V374c-7,10-18.68,17.2-34,17.2-22.84,0-42.85-17.38-42.85-46.6,0-28.85,20.39-49.19,47.18-49.19,12.84,0,22.84,4.44,29.63,10.91V276c0-11.47-15.28-5-15.28-12.58,0-3,3.4-4.8,14-9.42,9.24-4.08,12.83-5,14.15-5,3.21,0,4.15,3,4.15,6.48V364C1553.24,375.27,1567.21,371.2,1567.21,378.23Zm-31-27.93V338.65c0-21.08-16.41-33.66-30.38-33.66-18.12,0-28.5,15-28.5,34.22,0,24.78,16.05,39.2,31.52,39.2C1521.91,378.41,1536.25,369.35,1536.25,350.3Z"/><path class="cls-4" d="M1677.12,369.54a9.3,9.3,0,0,1-1.7,4.43c-7,9.8-23.4,18.13-39.82,18.13-25.66,0-47.37-17.57-47.37-48.45,0-29,21.71-49.2,46.43-49.2,23.21,0,38.69,17.38,38.69,35.51,0,3.88-1.13,5-4,5.92l-60.59,17.75c5.1,15.17,17.37,25.89,33,25.89a35.89,35.89,0,0,0,26.61-11.46c1.89-1.86,3.4-2.78,4.91-2.78A4,4,0,0,1,1677.12,369.54ZM1606,336.8a46.82,46.82,0,0,0,.57,7.4l43.59-13.32c3.4-.92,4.35-1.84,4.35-5,0-9.24-8.87-20.71-22.28-20.71C1617.3,305.18,1606,317.75,1606,336.8Z"/><path class="cls-4" d="M1808.75,378.23c0,3.14-3.59,5-14.16,8.69-9.06,3.33-11.51,3.88-12.83,3.88-4,0-4-4.25-4-6.65V374c-7,10-18.68,17.2-34,17.2-22.83,0-42.84-17.38-42.84-46.6,0-28.85,20.38-49.19,47.18-49.19,12.84,0,22.84,4.44,29.63,10.91V276c0-11.47-15.28-5-15.28-12.58,0-3,3.39-4.8,14-9.42,9.25-4.08,12.83-5,14.16-5,3.21,0,4.15,3,4.15,6.48V364C1794.78,375.27,1808.75,371.2,1808.75,378.23Zm-31-27.93V338.65c0-21.08-16.42-33.66-30.38-33.66-18.12,0-28.5,15-28.5,34.22,0,24.78,16,39.2,31.52,39.2C1763.45,378.41,1777.79,369.35,1777.79,350.3Z"/><path class="cls-5" d="M914.23,494.61A110.23,110.23,0,0,1,909,508.14a92.79,92.79,0,0,1-17.52,2.15c-22.88,0-34.56-14.25-34.56-29.93,0-18.27,14.84-30.91,36.28-30.91,8.23,0,14.94,1.62,18.1,2.07.38,4,1.05,9.4,1.81,13.88l-3,.63c-1.92-6-4.22-9.67-9.1-11.56a27.66,27.66,0,0,0-10-1.7c-15.8,0-24.13,10.93-24.13,25.71,0,17.29,9.58,28.41,25.09,28.41,9.76,0,14.55-4.22,19.43-13.18Z"/><path class="cls-5" d="M983.11,449.45c16.38,0,31,11.74,31,29.57,0,19.26-14,31.27-31.59,31.27-18.38,0-31.79-13.08-31.79-29.93C950.75,464.32,962.91,449.45,983.11,449.45Zm-1.91,3.32c-10.72,0-20.49,8.42-20.49,25.18s9.77,28.94,23.36,28.94c11.59,0,20.3-8.07,20.3-25.36C1004.37,462.72,993.74,452.77,981.2,452.77Z"/><path class="cls-5" d="M1114.41,453.22c-6,.36-8.23,1.79-8.42,5.91-.1,2.06-.29,5.83-.29,14.06v9.68c0,9.14-1.15,16.13-6.7,21.59-4.5,4.4-11,5.74-17.62,5.74-5.55,0-11.49-1.07-15.7-4.12-5.75-4.12-8.52-10.31-8.52-20.79V462.45c0-8.07-.77-8.6-8.43-9.23v-2.51h25.18v2.51c-7.66.44-8.42,1.16-8.42,9.23v22.39c0,13.09,6.6,20.25,18.09,20.25,13.6,0,17.91-7.88,17.91-22.76v-9.14c0-8.23-.29-11.64-.48-14.06-.29-4-2.49-5.55-9.58-5.91v-2.51h23Z"/><path class="cls-5" d="M1217.36,453.22c-6.13.63-8.14,1.52-8.43,5.64-.09,2.87-.28,6.63-.28,15v35.92H1205l-41-46.86v22.4c0,8.07.29,12.1.48,14.7.19,4.57,2.59,5.91,9.48,6.44v2.51h-23.27v-2.51c5.94-.44,8.24-1.79,8.62-6.17.29-2.87.48-6.9.48-15.06V462.36c0-2.51-.19-3.95-1.91-5.92-1.82-2.24-3.83-2.78-8.53-3.22v-2.51h14.37l40.59,45.06V473.83a144,144,0,0,0-.48-14.88c-.29-4-2.49-5.29-10.15-5.73v-2.51h23.65Z"/><path class="cls-5" d="M1284.93,464.32c-1.63-5.91-4.31-11.73-13.31-11.73-7.47,0-10,5.11-10,9.77,0,6.18,4.21,9.31,12.16,13.16,11.49,5.56,16.46,9.68,16.46,18.19,0,9.41-8.71,16.58-21.06,16.58a42.4,42.4,0,0,1-14.65-3,116.35,116.35,0,0,1-2.58-13.43l3-.72c1.91,6,6.12,13.79,16.08,13.79,6.89,0,11.11-4.47,11.11-10.3,0-6.9-3.93-9.68-12.35-14-10.06-5.1-15.7-9.4-15.7-17.73,0-8,7.08-15.51,19.72-15.51,5.36,0,10.62,1.35,12.64,1.7.38,3.23.76,6.81,1.53,12.64Z"/><path class="cls-5" d="M1375.62,494.7c-.57,2.33-3.16,11.56-4.12,14.24H1325v-2.51c8.91-.62,9.58-1.43,9.58-8.77V462.27c0-8-1-8.42-8.24-9v-2.51h29.3c9,0,12.73-.09,13.88-.18.1,2.24.48,9,.87,13.71l-2.88.45a28.74,28.74,0,0,0-2.87-6.81c-1.53-3-3.73-3.59-9.48-3.59H1346c-3,0-3.16.27-3.16,2.87V477h10.63c7.18,0,7.65-1.34,8.8-7.44h3V488h-3c-1.24-6.45-2-7.35-8.9-7.35h-10.53v17.83c0,6.27,2.1,6.81,6.89,6.9h8.91c5.84,0,6.79-.8,8.9-3.13,1.82-1.89,3.83-5.56,5.17-8.25Z"/><path class="cls-5" d="M1459.06,494.07c-.58,2.78-3.45,12.1-4.41,14.87h-44.52v-2.51c8.72-.8,9.48-1.25,9.48-8.87V462c0-7.62-1-8.07-8.61-8.78v-2.51h25.65v2.51c-7.66.71-8.71,1.07-8.71,8.78v36.46c0,5.46.77,6.72,6.22,6.81l7.57.09c4.88,0,6.32-.53,8.52-2.78a30,30,0,0,0,5.84-9.22Z"/><path class="cls-5" d="M1542.16,494.07c-.58,2.78-3.45,12.1-4.41,14.87h-44.52v-2.51c8.72-.8,9.48-1.25,9.48-8.87V462c0-7.62-1-8.07-8.61-8.78v-2.51h25.65v2.51c-7.66.71-8.71,1.07-8.71,8.78v36.46c0,5.46.77,6.72,6.22,6.81l7.57.09c4.88,0,6.32-.53,8.52-2.78a30,30,0,0,0,5.84-9.22Z"/><path class="cls-5" d="M1576.75,508.94v-2.51c7.85-.8,8.62-1.16,8.62-8.77V462.09c0-7.71-.77-8.07-8.62-8.87v-2.51h25.66v2.51c-8,.8-8.71,1.16-8.71,8.87v35.57c0,7.7.76,8,8.71,8.77v2.51Z"/><path class="cls-5" d="M1706.78,453.22c-6.13.63-8.14,1.52-8.43,5.64-.09,2.87-.28,6.63-.28,15v35.92h-3.64l-41-46.86v22.4c0,8.07.29,12.1.48,14.7.19,4.57,2.58,5.91,9.48,6.44v2.51h-23.27v-2.51c5.94-.44,8.24-1.79,8.62-6.17.29-2.87.48-6.9.48-15.06V462.36c0-2.51-.19-3.95-1.92-5.92-1.82-2.24-3.83-2.78-8.52-3.22v-2.51h14.36l40.6,45.06V473.83a144,144,0,0,0-.48-14.88c-.29-4-2.49-5.29-10.15-5.73v-2.51h23.65Z"/><path class="cls-5" d="M1803,484.49c-5.93.71-6.32,1.25-6.32,6.54v7.52a45.88,45.88,0,0,0,.58,8.51c-5.94,1.26-13.7,3.23-21.74,3.23-21.73,0-34.94-12.63-34.94-30.64,0-18.91,16.47-30.2,35.61-30.2a105.09,105.09,0,0,1,19.92,2.24c.19,3.32.67,8.78,1.44,14.43l-2.88.53c-2.3-7.61-5.07-10.83-11.11-12.72a34.56,34.56,0,0,0-8.9-1.16c-14.64,0-24.12,9.41-24.12,25.8,0,14.25,7.85,28.4,26.42,28.4a20.21,20.21,0,0,0,8.14-1.52c2-1.07,3.26-2.06,3.26-5.73v-7.35c0-6.54-.77-7.26-10-7.88v-2.6H1803Z"/><rect class="cls-1" x="640.98" y="-640.98" width="620.04" height="1902" transform="translate(1261.02 -640.98) rotate(90)"/><polygon class="cls-2" points="93.26 528.97 791.53 528.97 791.53 285.01 702.67 359.49 634.92 391.32 546.57 298.5 352.94 103.63 340.38 91.07 340.37 91.09 208.53 204.56 93.26 321.59 93.26 528.97"/><path class="cls-3" d="M791.55,438.55V529H93.25V321.6L208.51,204.53,340.36,91.08l5.25,8.47c6.2,17.49,2.38,24.06,3.18,35.62.26,5.24,2.86,10.91,6,15.36,6.51,9.17,14.67,17.33,21.25,26.4,6.78,9.43,14,11.49-6.68,17.8-8.43,2.6-4.35,8.74-2.28,16.16,2.07,7.11-4.13,12.62-4.56,20.3-.47,5.88-3.12,12.19-1.8,17.54,3.6,14.79-7.58,24.86-7.58,24.86l-38.52-.85-21,38.79,128.72,33.7,145.42,93.32h13.77l54.27-47.16,58.29,47.16Z"/><polygon class="cls-4" points="364.31 438.58 319.24 364.96 296.33 402.38 254.94 334.68 206.94 413.08 189.51 384.57 156.44 438.58 93.26 438.58 93.26 528.97 791.53 528.97 791.53 438.58 364.31 438.58"/><circle class="cls-2" cx="646.04" cy="197.01" r="69.58"/><path class="cls-4" d="M1019.06,162.33c0,5.92-9.81,4.08-14.72,15.35L974.9,245.37c-1.7,3.89-3,5.92-9.06,5.92-6.42,0-7.93-2.41-9.44-6.11l-19.06-48.63L916.2,245.37c-1.13,3-1.88,5.92-9.25,5.92-6.22,0-7.54-2.22-9.24-6.11L868.45,177.5c-5.09-11.28-14.72-9.25-14.72-15.17,0-2.4,2.08-3.51,4.53-3.51,4.91,0,10.19.56,18.31.56,7.17,0,12.27-.56,16.23-.56,3,0,5.28,1.11,5.28,3.89,0,5.91-10.56,3.7-10.56,12.2a35.5,35.5,0,0,0,2.64,9.8L910.54,233l21.33-50.49-1.89-5c-4.34-11.47-13.21-9.25-13.21-15.17,0-2.4,2.07-3.51,4.72-3.51,4.72,0,8.68.56,16.61.56,7.17,0,13.59-.56,17.55-.56,3.21,0,5.28,1.11,5.28,3.89,0,5.91-12.26,5.17-12.26,12.39,0,2,.75,4.8,2.64,9.61l17.93,48.46,20-48.46c2.08-5.36,2.83-8.13,2.83-10,0-8.32-11.51-6.11-11.51-12,0-2.78,2.27-3.89,5.28-3.89,3.78,0,8.69.56,13.78.56,5.29,0,10-.56,14.54-.56C1016.61,158.82,1019.06,159.93,1019.06,162.33Z"/><path class="cls-4" d="M1122.83,231.13a9.4,9.4,0,0,1-1.7,4.44c-7,9.8-23.4,18.12-39.82,18.12-25.67,0-47.38-17.57-47.38-48.45,0-29,21.71-49.19,46.43-49.19,23.22,0,38.69,17.38,38.69,35.5,0,3.89-1.13,5-4,5.92l-60.58,17.75c5.09,15.17,17.36,25.9,33,25.9a35.84,35.84,0,0,0,26.61-11.47c1.89-1.85,3.4-2.77,4.91-2.77A4,4,0,0,1,1122.83,231.13Zm-71.15-32.73a46.83,46.83,0,0,0,.56,7.4l43.6-13.32c3.39-.93,4.34-1.85,4.34-5,0-9.25-8.87-20.72-22.27-20.72C1063,166.77,1051.68,179.35,1051.68,198.4Z"/><path class="cls-4" d="M1144,247.22c0-7,11.89-1.66,11.89-16.65V137.74c0-11.47-13.4-5.18-13.4-12.39,0-3,3.21-5.18,13.21-9.8,9.63-4.44,11.51-5,13.21-5,3,0,4,2.4,4,6.47V230.57c0,15,12.07,9.62,12.07,16.65a3.67,3.67,0,0,1-4,3.7c-4.15,0-9.81-.56-16.61-.56-6.6,0-11.89.56-16,.56C1145.36,250.92,1144,248.88,1144,247.22Z"/><path class="cls-4" d="M1209.79,247.22c0-7,11.89-1.66,11.89-16.65V137.74c0-11.47-13.4-5.18-13.4-12.39,0-3,3.21-5.18,13.21-9.8,9.63-4.44,11.52-5,13.21-5,3,0,4,2.4,4,6.47V230.57c0,15,12.08,9.62,12.08,16.65a3.68,3.68,0,0,1-4,3.7c-4.15,0-9.81-.56-16.6-.56-6.61,0-11.9.56-16,.56C1211.11,250.92,1209.79,248.88,1209.79,247.22Z"/><path class="cls-4" d="M959.8,394.32c0,17.19-20.38,29.4-50.77,29.4-29.82,0-50.2-9.43-50.2-23.48,0-7.77,5.66-14.8,15.47-19.24-7.35-2.4-11.13-7.4-11.13-13.32,0-6.84,6.8-12.94,13.59-17.19-8.87-5.18-14.16-13.13-14.16-23.31,0-17.56,15.86-32.36,44.35-32.36a69.4,69.4,0,0,1,8.88.56c2.45-16.27,13-24.23,18.87-24.23,5.1,0,9.44,1.67,14.72,4.81,2.27,1.48,4.15,3.15,4.15,5.36s-1.51,4.07-5.28,4.07c-10.76,0-21.14,1.11-23.78,11.65,15.1,4.26,24.35,14.06,24.35,27.56,0,17.19-15.48,32.17-44.17,32.17a68.3,68.3,0,0,1-19.25-2.58c-3.58,2.21-7,4.43-7,7.77,0,3.14,3,4.43,10.19,5.17,17,2,35.48,3.7,41.9,4.44C948.86,373.23,959.8,381.19,959.8,394.32Zm-16.8,5c0-6.66-6.22-10.54-19.06-12-13-1.3-25.29-2.59-37.75-4.07-5.85,3-10.75,8.32-10.75,15.16,0,10.92,12.45,16.28,34.35,16.28C930.36,414.66,943,406.89,943,399.31ZM880.53,325c0,13.87,11.14,22.56,26.05,22.56,14.15,0,24.34-7.95,24.34-20.9,0-13.68-11.32-22.56-26-22.56C890.73,304.07,880.53,312.21,880.53,325Z"/><path class="cls-4" d="M1058.56,304.25c0,2.78-1.13,7.4-3.39,15.54-1,3.14-2.46,5-5.1,5-2.45,0-3.59-2-4.72-5-2.45-5.74-4.9-8.51-8.87-8.51-9.06,0-24.72,14.24-24.72,40.13V369c0,15,14.72,9.06,14.72,16.65a3.84,3.84,0,0,1-4.15,3.69c-4.72,0-11.33-.55-19.07-.55-6.6,0-11.89.55-15.85.55-3.21,0-4.53-2-4.53-3.69,0-7,11.89-1.67,11.89-16.65V323.67c0-11.46-13.4-5.18-13.4-12.39,0-2.95,3.4-5,13.21-9.62,9.63-4.62,11.7-5.17,13.21-5.17,3,0,4,2.4,4,6.47V322c6.22-15.72,20-26.26,33.4-26.26C1053.09,295.75,1058.56,299.63,1058.56,304.25Z"/><path class="cls-4" d="M1078.55,344c0-28.48,21.7-49.56,51.33-49.56,28.88,0,49.07,20,49.07,48.46,0,28.29-21.89,49.19-51.33,49.19C1098.74,392.1,1078.55,372.12,1078.55,344Zm82.1,5.37c0-23.3-14.16-44.76-34.73-44.76-17.93,0-29.07,14.06-29.07,32.74,0,23.12,14.16,44.75,34.73,44.75C1149.51,382.11,1160.65,367.87,1160.65,349.38Z"/><path class="cls-4" d="M1309.87,379.52c0,3.51-3.39,5.37-15.28,8.14-8.31,2-11.33,2.59-13.21,2.59-3.4,0-4-3.33-4-6.29V373.23c-6,9.62-15.66,17.76-31.89,17.76-21.33,0-31.52-14.06-31.52-35.88v-32c0-11.1-15.1-6.85-15.1-13.5,0-3.33,3.21-5.18,14.34-9.25,9.63-3.51,12.08-3.88,13.4-3.88,4,0,4.35,3.69,4.35,6.65v49.38c0,14.8,4.15,25,20.19,25,13,0,26.23-9.43,26.23-28.11V323.12c0-11.1-16.6-6.47-16.6-13.5,0-3.15,3.39-5,15.85-9.44,9.06-3.14,12.26-3.69,13.78-3.69,3.39,0,4,3.33,4,6.65v61.77C1294.4,376.19,1309.87,373.42,1309.87,379.52Z"/><path class="cls-4" d="M1442.72,385.63c0,2.58-2.26,3.69-5.28,3.69-4.91,0-8.87-.55-16.42-.55-7.74,0-11.14.55-16.23.55-3.4,0-5.29-1.66-5.29-3.88,0-6.66,12.65-2.22,12.65-13.69,0-1.47-.38-3.69-.57-5.55L1407.05,335c-1.51-9.43-4.91-25-19.82-25-11.32,0-23.59,8.87-23.59,27.74V369c0,15,12.27,9.62,12.27,16.65a3.84,3.84,0,0,1-4.15,3.69c-4.15,0-9.81-.55-16.61-.55-6.61,0-11.89.55-15.85.55-3.21,0-4.53-2-4.53-3.69,0-7,11.89-1.67,11.89-16.65V323.67c0-11.46-13.4-5.18-13.4-12.39,0-2.95,3.39-5,13.21-9.62,9.63-4.62,11.7-5.17,13.21-5.17,3,0,4,2.4,4,6.47v10.91c6-9.62,15.86-17.94,30.39-17.94,22.46,0,27.93,21.46,30,36.62l4.9,34.58C1431.21,384.51,1442.72,378.41,1442.72,385.63Z"/><path class="cls-4" d="M1567.21,378.23c0,3.14-3.59,5-14.16,8.69-9.06,3.33-11.51,3.88-12.83,3.88-4,0-4-4.25-4-6.65V374c-7,10-18.68,17.2-34,17.2-22.84,0-42.85-17.38-42.85-46.6,0-28.85,20.39-49.19,47.18-49.19,12.84,0,22.84,4.44,29.63,10.91V276c0-11.47-15.28-5-15.28-12.58,0-3,3.4-4.8,14-9.42,9.24-4.08,12.83-5,14.15-5,3.21,0,4.15,3,4.15,6.48V364C1553.24,375.27,1567.21,371.2,1567.21,378.23Zm-31-27.93V338.65c0-21.08-16.41-33.66-30.38-33.66-18.12,0-28.5,15-28.5,34.22,0,24.78,16.05,39.2,31.52,39.2C1521.91,378.41,1536.25,369.35,1536.25,350.3Z"/><path class="cls-4" d="M1677.12,369.54a9.3,9.3,0,0,1-1.7,4.43c-7,9.8-23.4,18.13-39.82,18.13-25.66,0-47.37-17.57-47.37-48.45,0-29,21.71-49.2,46.43-49.2,23.21,0,38.69,17.38,38.69,35.51,0,3.88-1.13,5-4,5.92l-60.59,17.75c5.1,15.17,17.37,25.89,33,25.89a35.89,35.89,0,0,0,26.61-11.46c1.89-1.86,3.4-2.78,4.91-2.78A4,4,0,0,1,1677.12,369.54ZM1606,336.8a46.82,46.82,0,0,0,.57,7.4l43.59-13.32c3.4-.92,4.35-1.84,4.35-5,0-9.24-8.87-20.71-22.28-20.71C1617.3,305.18,1606,317.75,1606,336.8Z"/><path class="cls-4" d="M1808.75,378.23c0,3.14-3.59,5-14.16,8.69-9.06,3.33-11.51,3.88-12.83,3.88-4,0-4-4.25-4-6.65V374c-7,10-18.68,17.2-34,17.2-22.83,0-42.84-17.38-42.84-46.6,0-28.85,20.38-49.19,47.18-49.19,12.84,0,22.84,4.44,29.63,10.91V276c0-11.47-15.28-5-15.28-12.58,0-3,3.39-4.8,14-9.42,9.25-4.08,12.83-5,14.16-5,3.21,0,4.15,3,4.15,6.48V364C1794.78,375.27,1808.75,371.2,1808.75,378.23Zm-31-27.93V338.65c0-21.08-16.42-33.66-30.38-33.66-18.12,0-28.5,15-28.5,34.22,0,24.78,16,39.2,31.52,39.2C1763.45,378.41,1777.79,369.35,1777.79,350.3Z"/><path class="cls-5" d="M914.23,494.61A110.23,110.23,0,0,1,909,508.14a92.79,92.79,0,0,1-17.52,2.15c-22.88,0-34.56-14.25-34.56-29.93,0-18.27,14.84-30.91,36.28-30.91,8.23,0,14.94,1.62,18.1,2.07.38,4,1.05,9.4,1.81,13.88l-3,.63c-1.92-6-4.22-9.67-9.1-11.56a27.66,27.66,0,0,0-10-1.7c-15.8,0-24.13,10.93-24.13,25.71,0,17.29,9.58,28.41,25.09,28.41,9.76,0,14.55-4.22,19.43-13.18Z"/><path class="cls-5" d="M983.11,449.45c16.38,0,31,11.74,31,29.57,0,19.26-14,31.27-31.59,31.27-18.38,0-31.79-13.08-31.79-29.93C950.75,464.32,962.91,449.45,983.11,449.45Zm-1.91,3.32c-10.72,0-20.49,8.42-20.49,25.18s9.77,28.94,23.36,28.94c11.59,0,20.3-8.07,20.3-25.36C1004.37,462.72,993.74,452.77,981.2,452.77Z"/><path class="cls-5" d="M1114.41,453.22c-6,.36-8.23,1.79-8.42,5.91-.1,2.06-.29,5.83-.29,14.06v9.68c0,9.14-1.15,16.13-6.7,21.59-4.5,4.4-11,5.74-17.62,5.74-5.55,0-11.49-1.07-15.7-4.12-5.75-4.12-8.52-10.31-8.52-20.79V462.45c0-8.07-.77-8.6-8.43-9.23v-2.51h25.18v2.51c-7.66.44-8.42,1.16-8.42,9.23v22.39c0,13.09,6.6,20.25,18.09,20.25,13.6,0,17.91-7.88,17.91-22.76v-9.14c0-8.23-.29-11.64-.48-14.06-.29-4-2.49-5.55-9.58-5.91v-2.51h23Z"/><path class="cls-5" d="M1217.36,453.22c-6.13.63-8.14,1.52-8.43,5.64-.09,2.87-.28,6.63-.28,15v35.92H1205l-41-46.86v22.4c0,8.07.29,12.1.48,14.7.19,4.57,2.59,5.91,9.48,6.44v2.51h-23.27v-2.51c5.94-.44,8.24-1.79,8.62-6.17.29-2.87.48-6.9.48-15.06V462.36c0-2.51-.19-3.95-1.91-5.92-1.82-2.24-3.83-2.78-8.53-3.22v-2.51h14.37l40.59,45.06V473.83a144,144,0,0,0-.48-14.88c-.29-4-2.49-5.29-10.15-5.73v-2.51h23.65Z"/><path class="cls-5" d="M1284.93,464.32c-1.63-5.91-4.31-11.73-13.31-11.73-7.47,0-10,5.11-10,9.77,0,6.18,4.21,9.31,12.16,13.16,11.49,5.56,16.46,9.68,16.46,18.19,0,9.41-8.71,16.58-21.06,16.58a42.4,42.4,0,0,1-14.65-3,116.35,116.35,0,0,1-2.58-13.43l3-.72c1.91,6,6.12,13.79,16.08,13.79,6.89,0,11.11-4.47,11.11-10.3,0-6.9-3.93-9.68-12.35-14-10.06-5.1-15.7-9.4-15.7-17.73,0-8,7.08-15.51,19.72-15.51,5.36,0,10.62,1.35,12.64,1.7.38,3.23.76,6.81,1.53,12.64Z"/><path class="cls-5" d="M1375.62,494.7c-.57,2.33-3.16,11.56-4.12,14.24H1325v-2.51c8.91-.62,9.58-1.43,9.58-8.77V462.27c0-8-1-8.42-8.24-9v-2.51h29.3c9,0,12.73-.09,13.88-.18.1,2.24.48,9,.87,13.71l-2.88.45a28.74,28.74,0,0,0-2.87-6.81c-1.53-3-3.73-3.59-9.48-3.59H1346c-3,0-3.16.27-3.16,2.87V477h10.63c7.18,0,7.65-1.34,8.8-7.44h3V488h-3c-1.24-6.45-2-7.35-8.9-7.35h-10.53v17.83c0,6.27,2.1,6.81,6.89,6.9h8.91c5.84,0,6.79-.8,8.9-3.13,1.82-1.89,3.83-5.56,5.17-8.25Z"/><path class="cls-5" d="M1459.06,494.07c-.58,2.78-3.45,12.1-4.41,14.87h-44.52v-2.51c8.72-.8,9.48-1.25,9.48-8.87V462c0-7.62-1-8.07-8.61-8.78v-2.51h25.65v2.51c-7.66.71-8.71,1.07-8.71,8.78v36.46c0,5.46.77,6.72,6.22,6.81l7.57.09c4.88,0,6.32-.53,8.52-2.78a30,30,0,0,0,5.84-9.22Z"/><path class="cls-5" d="M1542.16,494.07c-.58,2.78-3.45,12.1-4.41,14.87h-44.52v-2.51c8.72-.8,9.48-1.25,9.48-8.87V462c0-7.62-1-8.07-8.61-8.78v-2.51h25.65v2.51c-7.66.71-8.71,1.07-8.71,8.78v36.46c0,5.46.77,6.72,6.22,6.81l7.57.09c4.88,0,6.32-.53,8.52-2.78a30,30,0,0,0,5.84-9.22Z"/><path class="cls-5" d="M1576.75,508.94v-2.51c7.85-.8,8.62-1.16,8.62-8.77V462.09c0-7.71-.77-8.07-8.62-8.87v-2.51h25.66v2.51c-8,.8-8.71,1.16-8.71,8.87v35.57c0,7.7.76,8,8.71,8.77v2.51Z"/><path class="cls-5" d="M1706.78,453.22c-6.13.63-8.14,1.52-8.43,5.64-.09,2.87-.28,6.63-.28,15v35.92h-3.64l-41-46.86v22.4c0,8.07.29,12.1.48,14.7.19,4.57,2.58,5.91,9.48,6.44v2.51h-23.27v-2.51c5.94-.44,8.24-1.79,8.62-6.17.29-2.87.48-6.9.48-15.06V462.36c0-2.51-.19-3.95-1.92-5.92-1.82-2.24-3.83-2.78-8.52-3.22v-2.51h14.36l40.6,45.06V473.83a144,144,0,0,0-.48-14.88c-.29-4-2.49-5.29-10.15-5.73v-2.51h23.65Z"/><path class="cls-5" d="M1803,484.49c-5.93.71-6.32,1.25-6.32,6.54v7.52a45.88,45.88,0,0,0,.58,8.51c-5.94,1.26-13.7,3.23-21.74,3.23-21.73,0-34.94-12.63-34.94-30.64,0-18.91,16.47-30.2,35.61-30.2a105.09,105.09,0,0,1,19.92,2.24c.19,3.32.67,8.78,1.44,14.43l-2.88.53c-2.3-7.61-5.07-10.83-11.11-12.72a34.56,34.56,0,0,0-8.9-1.16c-14.64,0-24.12,9.41-24.12,25.8,0,14.25,7.85,28.4,26.42,28.4a20.21,20.21,0,0,0,8.14-1.52c2-1.07,3.26-2.06,3.26-5.73v-7.35c0-6.54-.77-7.26-10-7.88v-2.6H1803Z"/></svg>