<svg id="Layer_1" data-name="Layer 1" xmlns="http://www.w3.org/2000/svg" viewBox="0 0 988.44 1058.64"><defs><style>.cls-1{fill:#e7ac46;}.cls-2{fill:#c45a35;}.cls-3{fill:#5c622e;}.cls-4{fill:#5d632e;stroke:#5c612f;stroke-miterlimit:10;stroke-width:1.36px;}</style></defs><title>wellgrounded-vertical-background</title><polygon class="cls-1" points="73.14 603.28 915.28 603.28 915.28 309.05 808.11 398.88 726.41 437.26 619.85 325.32 386.32 90.3 371.18 75.15 371.16 75.17 212.17 212.01 73.14 353.16 73.14 603.28"/><path class="cls-2" d="M915.31,494.23v109H73.13V353.17L212.14,212l159-136.84,6.32,10.23c7.48,21.09,2.88,29,3.84,43,.32,6.33,3.45,13.16,7.22,18.53,7.86,11.06,17.7,20.9,25.63,31.83,8.18,11.38,16.87,13.87-8.05,21.48-10.17,3.13-5.24,10.54-2.75,19.49,2.49,8.56-5,15.21-5.5,24.48-.57,7.09-3.77,14.7-2.17,21.15,4.34,17.83-9.14,30-9.14,30l-46.47-1L314.79,341,470,381.68,645.4,494.23H662l65.45-56.88,70.3,56.88Z"/><polygon class="cls-3" points="400.04 494.26 345.68 405.47 318.05 450.6 268.13 368.95 210.25 463.51 189.22 429.12 149.34 494.26 73.14 494.26 73.14 603.28 915.28 603.28 915.28 494.26 400.04 494.26"/><circle class="cls-1" cx="739.82" cy="202.91" r="83.92"/><path class="cls-3" d="M222.32,682.21c0,5.12-8.5,3.52-12.75,13.28L184.08,754.1c-1.48,3.37-2.62,5.13-7.85,5.13-5.55,0-6.87-2.08-8.17-5.28l-16.51-42.12-18.3,42.27c-1,2.57-1.64,5.13-8,5.13-5.4,0-6.54-1.93-8-5.28L91.89,695.33c-4.41-9.77-12.75-8-12.75-13.12,0-2.09,1.8-3.05,3.92-3.05,4.25,0,8.83.48,15.86.48,6.21,0,10.63-.48,14.06-.48,2.61,0,4.57,1,4.57,3.36,0,5.13-9.15,3.21-9.15,10.57a30.81,30.81,0,0,0,2.29,8.49l17.65,41.79,18.47-43.71-1.63-4.33c-3.76-9.92-11.45-8-11.45-13.12,0-2.09,1.8-3.05,4.09-3.05,4.09,0,7.52.48,14.39.48,6.21,0,11.76-.48,15.19-.48,2.78,0,4.58,1,4.58,3.36,0,5.13-10.62,4.49-10.62,10.73,0,1.76.65,4.17,2.29,8.33l15.53,42,17.32-42c1.79-4.64,2.45-7.05,2.45-8.64,0-7.21-10-5.29-10-10.42,0-2.4,2-3.36,4.58-3.36,3.27,0,7.52.48,11.93.48,4.58,0,8.66-.48,12.58-.48C220.2,679.16,222.32,680.12,222.32,682.21Z"/><path class="cls-3" d="M312.66,741.77a8.09,8.09,0,0,1-1.47,3.85c-6.05,8.48-20.27,15.69-34.49,15.69-22.23,0-41-15.22-41-41.95,0-25.14,18.8-42.6,40.22-42.6,20.1,0,33.5,15,33.5,30.74,0,3.37-1,4.33-3.43,5.13L253.49,728c4.42,13.13,15,22.42,28.61,22.42a31,31,0,0,0,23-9.93c1.64-1.6,2.94-2.4,4.25-2.4A3.47,3.47,0,0,1,312.66,741.77ZM251,713.43a40.52,40.52,0,0,0,.49,6.41l37.76-11.53c2.94-.81,3.76-1.61,3.76-4.33,0-8-7.69-17.93-19.29-17.93C260.85,686.05,251,696.94,251,713.43Z"/><path class="cls-3" d="M331.47,755.71c0-6.09,10.3-1.45,10.3-14.42V660.9c0-9.92-11.6-4.48-11.6-10.72,0-2.56,2.78-4.49,11.44-8.49,8.33-3.84,10-4.32,11.44-4.32,2.62,0,3.43,2.08,3.43,5.6v98.32c0,13,10.46,8.33,10.46,14.42a3.17,3.17,0,0,1-3.43,3.2c-3.59,0-8.5-.48-14.39-.48-5.71,0-10.29.48-13.88.48C332.62,758.91,331.47,757.15,331.47,755.71Z"/><path class="cls-3" d="M388.85,755.71c0-6.09,10.29-1.45,10.29-14.42V660.9c0-9.92-11.6-4.48-11.6-10.72,0-2.56,2.78-4.49,11.44-8.49,8.33-3.84,10-4.32,11.44-4.32,2.62,0,3.43,2.08,3.43,5.6v98.32c0,13,10.47,8.33,10.47,14.42a3.18,3.18,0,0,1-3.44,3.2c-3.59,0-8.5-.48-14.38-.48-5.72,0-10.3.48-13.89.48C390,758.91,388.85,757.15,388.85,755.71Z"/><path class="cls-3" d="M171,883.07c0,14.89-17.65,25.46-44,25.46-25.83,0-43.48-8.17-43.48-20.34,0-6.73,4.9-12.81,13.4-16.66-6.37-2.07-9.65-6.4-9.65-11.52,0-5.93,5.89-11.21,11.78-14.9-7.69-4.48-12.26-11.36-12.26-20.17,0-15.21,13.72-28,38.41-28a58.22,58.22,0,0,1,7.68.48c2.12-14.09,11.27-21,16.34-21,4.41,0,8.18,1.44,12.75,4.16,2,1.28,3.6,2.73,3.6,4.65s-1.31,3.52-4.58,3.52c-9.32,0-18.3,1-20.59,10.08,13.07,3.69,21.08,12.18,21.08,23.87,0,14.89-13.4,27.86-38.25,27.86a59.09,59.09,0,0,1-16.67-2.24c-3.1,1.92-6,3.84-6,6.72s2.62,3.85,8.83,4.49c14.71,1.76,30.73,3.2,36.29,3.84C161.52,864.81,171,871.7,171,883.07Zm-14.55,4.32c0-5.76-5.39-9.13-16.5-10.41-11.28-1.12-21.91-2.24-32.69-3.52-5.07,2.56-9.32,7.21-9.32,13.13,0,9.45,10.79,14.09,29.75,14.09C145.5,900.68,156.45,894,156.45,887.39ZM102.35,823c0,12,9.65,19.54,22.56,19.54,12.26,0,21.08-6.9,21.08-18.1,0-11.85-9.8-19.54-22.55-19.54C111.18,804.92,102.35,812,102.35,823Z"/><path class="cls-3" d="M256.92,805.08c0,2.4-1,6.41-2.94,13.45-.82,2.72-2.12,4.33-4.41,4.33-2.13,0-3.11-1.76-4.09-4.33-2.12-5-4.25-7.36-7.68-7.36-7.85,0-21.41,12.33-21.41,34.74v15.22c0,13,12.74,7.85,12.74,14.41a3.32,3.32,0,0,1-3.59,3.2c-4.08,0-9.81-.48-16.51-.48-5.72,0-10.29.48-13.73.48-2.78,0-3.92-1.76-3.92-3.2,0-6.08,10.3-1.44,10.3-14.41V821.9c0-9.93-11.61-4.48-11.61-10.73,0-2.56,2.94-4.33,11.44-8.33,8.34-4,10.13-4.48,11.44-4.48,2.62,0,3.44,2.08,3.44,5.6v16.49c5.39-13.61,17.32-22.73,28.93-22.73C252.18,797.72,256.92,801.08,256.92,805.08Z"/><path class="cls-3" d="M274.67,839.51c0-24.66,18.8-42.92,44.46-42.92,25,0,42.5,17.3,42.5,42,0,24.5-19,42.6-44.46,42.6C292.16,881.15,274.67,863.85,274.67,839.51Zm71.1,4.64c0-20.17-12.26-38.75-30.07-38.75-15.53,0-25.17,12.17-25.17,28.35,0,20,12.26,38.75,30.07,38.75C336.13,872.5,345.77,860.17,345.77,844.15Z"/><path class="cls-3" d="M475.48,870.26c0,3-2.94,4.64-13.24,7-7.19,1.76-9.81,2.24-11.44,2.24-2.94,0-3.44-2.88-3.44-5.44v-9.29c-5.23,8.33-13.56,15.38-27.61,15.38-18.47,0-27.3-12.18-27.3-31.07v-27.7c0-9.61-13.08-5.93-13.08-11.69,0-2.89,2.78-4.49,12.43-8,8.33-3,10.46-3.36,11.6-3.36,3.43,0,3.76,3.2,3.76,5.76v42.75c0,12.82,3.59,21.62,17.49,21.62,11.27,0,22.71-8.17,22.71-24.34V821.42c0-9.61-14.38-5.61-14.38-11.69,0-2.73,2.94-4.33,13.74-8.17,7.84-2.73,10.62-3.2,11.92-3.2,2.95,0,3.44,2.88,3.44,5.76V857.6C462.08,867.37,475.48,865,475.48,870.26Z"/><path class="cls-3" d="M591,875.54c0,2.24-2,3.2-4.58,3.2-4.25,0-7.68-.48-14.21-.48-6.71,0-9.65.48-14.06.48-3,0-4.58-1.44-4.58-3.36,0-5.76,11-1.92,11-11.85,0-1.28-.32-3.21-.49-4.8l-3.92-27.07C558.75,823.5,555.81,810,542.9,810c-9.81,0-20.43,7.69-20.43,24v27.06c0,13,10.62,8.33,10.62,14.41a3.32,3.32,0,0,1-3.59,3.2c-3.6,0-8.5-.48-14.39-.48-5.72,0-10.29.48-13.73.48-2.78,0-3.92-1.76-3.92-3.2,0-6.08,10.3-1.44,10.3-14.41V821.9c0-9.93-11.61-4.48-11.61-10.73,0-2.56,2.94-4.33,11.44-8.33,8.34-4,10.13-4.48,11.45-4.48,2.61,0,3.43,2.08,3.43,5.6v9.45c5.23-8.33,13.73-15.53,26.31-15.53,19.45,0,24.19,18.57,26,31.7L579,859.53C581,874.58,591,869.29,591,875.54Z"/><path class="cls-3" d="M699.23,869.14c0,2.72-3.11,4.32-12.26,7.52-7.85,2.88-10,3.36-11.11,3.36-3.43,0-3.43-3.68-3.43-5.76v-8.8c-6,8.64-16.19,14.89-29.43,14.89-19.78,0-37.1-15.06-37.1-40.36,0-25,17.65-42.59,40.86-42.59,11.12,0,19.78,3.84,25.67,9.44V780.58c0-9.93-13.24-4.32-13.24-10.89,0-2.56,2.94-4.16,12.09-8.16,8-3.53,11.11-4.33,12.25-4.33,2.79,0,3.61,2.56,3.61,5.61v94C687.14,866.57,699.23,863.05,699.23,869.14ZM672.43,845V834.87c0-18.26-14.23-29.15-26.32-29.15-15.7,0-24.68,13-24.68,29.63,0,21.45,13.89,33.94,27.3,33.94C660,869.29,672.43,861.45,672.43,845Z"/><path class="cls-3" d="M794.89,861.61a8.17,8.17,0,0,1-1.47,3.85c-6,8.48-20.27,15.69-34.49,15.69-22.23,0-41-15.22-41-42,0-25.14,18.8-42.6,40.21-42.6,20.11,0,33.51,15.06,33.51,30.75,0,3.36-1,4.32-3.43,5.12l-52.47,15.38c4.41,13.13,15,22.42,28.6,22.42a31,31,0,0,0,23-9.94c1.63-1.59,2.94-2.39,4.25-2.39A3.47,3.47,0,0,1,794.89,861.61Zm-61.62-28.34a40.3,40.3,0,0,0,.49,6.4l37.75-11.53c2.94-.8,3.76-1.6,3.76-4.32,0-8-7.68-17.94-19.28-17.94C743.07,805.88,733.27,816.77,733.27,833.27Z"/><path class="cls-3" d="M909.29,869.14c0,2.72-3.1,4.32-12.25,7.52-7.85,2.88-10,3.36-11.11,3.36-3.44,0-3.44-3.68-3.44-5.76v-8.8c-6,8.64-16.18,14.89-29.42,14.89-19.78,0-37.1-15.06-37.1-40.36,0-25,17.65-42.59,40.86-42.59,11.11,0,19.78,3.84,25.66,9.44V780.58c0-9.93-13.24-4.32-13.24-10.89,0-2.56,3-4.16,12.1-8.16,8-3.53,11.11-4.33,12.25-4.33,2.79,0,3.6,2.56,3.6,5.61v94C897.2,866.57,909.29,863.05,909.29,869.14ZM882.49,845V834.87c0-18.26-14.22-29.15-26.31-29.15-15.69,0-24.69,13-24.69,29.63,0,21.45,13.9,33.94,27.3,33.94C870.07,869.29,882.49,861.45,882.49,845Z"/><path class="cls-4" d="M130.84,969.9a94.91,94.91,0,0,1-4.56,11.72,79.83,79.83,0,0,1-15.17,1.87c-19.81,0-29.92-12.35-29.92-25.94,0-15.83,12.85-26.77,31.42-26.77,7.12,0,12.92,1.39,15.66,1.78.33,3.49.91,8.15,1.57,12l-2.57.54c-1.65-5.2-3.64-8.38-7.87-10a24.07,24.07,0,0,0-8.7-1.47c-13.68,0-20.89,9.47-20.89,22.28,0,15,8.28,24.61,21.72,24.61,8.45,0,12.6-3.66,16.82-11.41Z"/><path class="cls-4" d="M190.62,930.78c14.18,0,26.86,10.17,26.86,25.61,0,16.69-12.1,27.1-27.36,27.1-15.91,0-27.51-11.34-27.51-25.94C162.61,943.66,173.13,930.78,190.62,930.78ZM189,933.65c-9.28,0-17.74,7.3-17.74,21.81s8.46,25.08,20.23,25.08c10,0,17.57-7,17.57-22C209,942.26,199.82,933.65,189,933.65Z"/><path class="cls-4" d="M304.47,934c-5.22.31-7.12,1.55-7.29,5.12-.08,1.79-.25,5-.25,12.18v8.39c0,7.92-1,14-5.81,18.71-3.89,3.81-9.53,5-15.25,5-4.81,0-9.94-.93-13.59-3.57-5-3.57-7.38-8.93-7.38-18V942c0-7-.66-7.45-7.29-8v-2.18h21.8V934c-6.64.38-7.3,1-7.3,8v19.41c0,11.33,5.72,17.54,15.67,17.54,11.77,0,15.5-6.83,15.5-19.72v-7.92c0-7.14-.25-10.08-.42-12.18-.24-3.49-2.15-4.81-8.28-5.12v-2.18h19.89Z"/><path class="cls-4" d="M393.71,934c-5.3.54-7,1.31-7.29,4.88-.08,2.49-.25,5.75-.25,13V983H383l-35.48-40.6v19.4c0,7,.25,10.49.42,12.74.16,4,2.23,5.12,8.2,5.59v2.17H336v-2.17c5.14-.39,7.13-1.56,7.46-5.36.25-2.48.41-6,.41-13V942c0-2.17-.16-3.41-1.66-5.12-1.57-1.94-3.31-2.41-7.37-2.79v-2.18h12.43l35.15,39v-19A124.7,124.7,0,0,0,382,939c-.24-3.49-2.15-4.58-8.78-5v-2.18h20.47Z"/><path class="cls-4" d="M452.36,943.66c-1.41-5.12-3.72-10.17-11.52-10.17-6.46,0-8.7,4.43-8.7,8.46,0,5.36,3.65,8.08,10.53,11.42,9.94,4.81,14.26,8.38,14.26,15.76,0,8.15-7.55,14.36-18.24,14.36A36.52,36.52,0,0,1,426,980.92a100.26,100.26,0,0,1-2.24-11.64l2.57-.62c1.66,5.2,5.3,12,13.92,12,6,0,9.62-3.88,9.62-8.93,0-6-3.4-8.38-10.69-12.1-8.71-4.43-13.6-8.15-13.6-15.38,0-6.91,6.13-13.42,17.08-13.42a56.54,56.54,0,0,1,10.94,1.47c.33,2.8.66,5.9,1.33,11Z"/><path class="cls-4" d="M531,970c-.5,2-2.74,10-3.57,12.35H487.19v-2.17c7.7-.54,8.28-1.24,8.28-7.61V941.88c0-6.91-.91-7.3-7.12-7.84v-2.18h25.36c7.79,0,11-.08,12-.15.08,1.94.41,7.76.75,11.88L524,944a25.15,25.15,0,0,0-2.49-5.9c-1.32-2.56-3.23-3.1-8.21-3.1h-7.87c-2.57,0-2.74.23-2.74,2.48v17.16h9.21c6.22,0,6.63-1.17,7.63-6.44h2.56v16h-2.56c-1.08-5.59-1.75-6.37-7.72-6.37h-9.12v15.45c0,5.43,1.83,5.9,6,6h7.7c5.06,0,5.89-.69,7.71-2.71a32.88,32.88,0,0,0,4.48-7.14Z"/><path class="cls-4" d="M603.41,969.43c-.5,2.41-3,10.48-3.81,12.89H561.05v-2.17c7.55-.7,8.21-1.09,8.21-7.69V941.64c0-6.59-.83-7-7.46-7.6v-2.18H584V934c-6.63.61-7.55.93-7.55,7.6v31.6c0,4.74.67,5.82,5.39,5.9l6.55.07c4.22,0,5.47-.46,7.38-2.4a26,26,0,0,0,5.05-8Z"/><path class="cls-4" d="M675.5,969.43c-.5,2.41-3,10.48-3.82,12.89H633.14v-2.17c7.54-.7,8.2-1.09,8.2-7.69V941.64c0-6.59-.83-7-7.46-7.6v-2.18H656.1V934c-6.63.61-7.55.93-7.55,7.6v31.6c0,4.74.67,5.82,5.39,5.9l6.55.07c4.23,0,5.48-.46,7.38-2.4a26,26,0,0,0,5-8Z"/><path class="cls-4" d="M705.6,982.32v-2.17c6.8-.7,7.46-1,7.46-7.61V941.72c0-6.67-.66-7-7.46-7.68v-2.18h22.21V934c-6.88.7-7.54,1-7.54,7.68v30.82c0,6.67.66,6.91,7.54,7.61v2.17Z"/><path class="cls-4" d="M818.3,934c-5.31.54-7,1.31-7.3,4.88-.08,2.49-.25,5.75-.25,13V983h-3.14l-35.48-40.6v19.4c0,7,.25,10.49.41,12.74.17,4,2.24,5.12,8.21,5.59v2.17H760.6v-2.17c5.15-.39,7.13-1.56,7.47-5.36.24-2.48.41-6,.41-13V942c0-2.17-.17-3.41-1.66-5.12-1.57-1.94-3.31-2.41-7.38-2.79v-2.18h12.44l35.15,39v-19a124.7,124.7,0,0,0-.42-12.89c-.25-3.49-2.15-4.58-8.78-5v-2.18H818.3Z"/><path class="cls-4" d="M901.76,961.13c-5.14.62-5.47,1.09-5.47,5.66v6.52a39.45,39.45,0,0,0,.5,7.38c-5.14,1.09-11.86,2.8-18.82,2.8-18.81,0-30.25-11-30.25-26.55,0-16.38,14.25-26.16,30.84-26.16a91.18,91.18,0,0,1,17.23,1.93c.17,2.88.58,7.61,1.25,12.5l-2.49.47c-2-6.6-4.39-9.39-9.62-11a30.1,30.1,0,0,0-7.7-1c-12.69,0-20.89,8.15-20.89,22.36,0,12.34,6.79,24.6,22.88,24.6a17.48,17.48,0,0,0,7-1.32c1.74-.93,2.82-1.78,2.82-5V968c0-5.67-.66-6.29-8.62-6.83v-2.25h21.3Z"/></svg>